<svg id="visual" viewBox="0 0 900 600" width="900" height="600" xmlns="http://www.w3.org/2000/svg" xmlns:xlink="http://www.w3.org/1999/xlink" version="1.1"><g stroke-width="1" stroke-linejoin="bevel"><path d="M430 266L582 188L447 141Z" fill="#7d7d7f" stroke="#7d7d7f"></path><path d="M430 266L584 289L582 188Z" fill="#dbdbdc" stroke="#dbdbdc"></path><path d="M287 98L308 328L430 266Z" fill="#dbdbdc" stroke="#dbdbdc"></path><path d="M430 266L566 436L584 289Z" fill="#f4f4f5" stroke="#f4f4f5"></path><path d="M627 0L410 0L447 141Z" fill="#18181b" stroke="#18181b"></path><path d="M447 141L287 98L430 266Z" fill="#dbdbdc" stroke="#dbdbdc"></path><path d="M724 276L710 117L582 188Z" fill="#949495" stroke="#949495"></path><path d="M582 188L627 0L447 141Z" fill="#7d7d7f" stroke="#7d7d7f"></path><path d="M459 502L566 436L430 266Z" fill="#ababac" stroke="#ababac"></path><path d="M584 289L724 276L582 188Z" fill="#2a2a2d" stroke="#2a2a2d"></path><path d="M566 436L724 276L584 289Z" fill="#dbdbdc" stroke="#dbdbdc"></path><path d="M410 0L287 98L447 141Z" fill="#2a2a2d" stroke="#2a2a2d"></path><path d="M710 117L627 0L582 188Z" fill="#3d3d40" stroke="#3d3d40"></path><path d="M308 328L339 416L430 266Z" fill="#18181b" stroke="#18181b"></path><path d="M339 416L459 502L430 266Z" fill="#3d3d40" stroke="#3d3d40"></path><path d="M308 328L133 473L339 416Z" fill="#949495" stroke="#949495"></path><path d="M287 98L193 274L308 328Z" fill="#c3c3c4" stroke="#c3c3c4"></path><path d="M410 0L260 0L287 98Z" fill="#525254" stroke="#525254"></path><path d="M287 98L165 179L193 274Z" fill="#2a2a2d" stroke="#2a2a2d"></path><path d="M900 0L756 0L710 117Z" fill="#f4f4f5" stroke="#f4f4f5"></path><path d="M710 117L756 0L627 0Z" fill="#dbdbdc" stroke="#dbdbdc"></path><path d="M201 0L165 179L287 98Z" fill="#dbdbdc" stroke="#dbdbdc"></path><path d="M260 0L201 0L287 98Z" fill="#ababac" stroke="#ababac"></path><path d="M276 600L459 600L459 502Z" fill="#949495" stroke="#949495"></path><path d="M459 502L563 600L566 436Z" fill="#dbdbdc" stroke="#dbdbdc"></path><path d="M566 436L792 492L724 276Z" fill="#949495" stroke="#949495"></path><path d="M276 600L459 502L339 416Z" fill="#7d7d7f" stroke="#7d7d7f"></path><path d="M459 600L563 600L459 502Z" fill="#949495" stroke="#949495"></path><path d="M724 276L900 194L710 117Z" fill="#dbdbdc" stroke="#dbdbdc"></path><path d="M900 258L900 194L724 276Z" fill="#676769" stroke="#676769"></path><path d="M900 426L900 258L724 276Z" fill="#ababac" stroke="#ababac"></path><path d="M750 600L792 492L566 436Z" fill="#3d3d40" stroke="#3d3d40"></path><path d="M133 473L308 328L193 274Z" fill="#2a2a2d" stroke="#2a2a2d"></path><path d="M133 473L276 600L339 416Z" fill="#676769" stroke="#676769"></path><path d="M0 438L133 473L193 274Z" fill="#f4f4f5" stroke="#f4f4f5"></path><path d="M900 194L900 0L710 117Z" fill="#949495" stroke="#949495"></path><path d="M792 492L900 426L724 276Z" fill="#949495" stroke="#949495"></path><path d="M563 600L750 600L566 436Z" fill="#f4f4f5" stroke="#f4f4f5"></path><path d="M792 492L900 600L900 426Z" fill="#7d7d7f" stroke="#7d7d7f"></path><path d="M165 179L0 267L193 274Z" fill="#dbdbdc" stroke="#dbdbdc"></path><path d="M0 106L0 267L165 179Z" fill="#676769" stroke="#676769"></path><path d="M201 0L0 106L165 179Z" fill="#2a2a2d" stroke="#2a2a2d"></path><path d="M0 600L127 600L133 473Z" fill="#3d3d40" stroke="#3d3d40"></path><path d="M133 473L127 600L276 600Z" fill="#f4f4f5" stroke="#f4f4f5"></path><path d="M201 0L0 0L0 106Z" fill="#18181b" stroke="#18181b"></path><path d="M0 267L0 438L193 274Z" fill="#7d7d7f" stroke="#7d7d7f"></path><path d="M750 600L900 600L792 492Z" fill="#18181b" stroke="#18181b"></path><path d="M0 438L0 600L133 473Z" fill="#525254" stroke="#525254"></path></g></svg>